<?xml version="1.0" standalone="no"?>
<!DOCTYPE svg PUBLIC "-//W3C//DTD SVG 20010904//EN"
 "http://www.w3.org/TR/2001/REC-SVG-20010904/DTD/svg10.dtd">
<svg version="1.0" xmlns="http://www.w3.org/2000/svg"
 width="328.000000pt" height="328.000000pt" viewBox="0 0 328.000000 328.000000"
 preserveAspectRatio="xMidYMid meet">
<metadata>
Created by potrace 1.14, written by Peter Selinger 2001-2017
</metadata>
<g transform="translate(0.000000,328.000000) scale(0.100000,-0.100000)"
fill="#000000" stroke="none">
<path d="M1020 2579 c0 -25 2 -26 73 -32 67 -6 74 -5 97 18 l25 25 -25 1 c-14
0 -58 4 -97 8 l-73 7 0 -27z"/>
<path d="M1225 2514 c-4 -52 -5 -97 -2 -100 2 -3 35 -10 73 -17 63 -12 69 -15
72 -39 3 -23 9 -27 51 -33 44 -6 48 -9 43 -30 -3 -20 1 -25 22 -30 14 -3 37
-7 51 -10 18 -4 25 -12 25 -29 0 -19 -4 -22 -25 -18 -17 3 -25 0 -25 -9 0 -25
15 -37 53 -44 30 -6 37 -12 37 -30 0 -21 17 -35 41 -35 5 0 9 12 9 26 0 20 4
25 16 20 9 -3 20 -6 25 -6 5 0 9 -11 9 -25 0 -18 5 -25 19 -25 14 0 21 -8 23
-27 2 -20 9 -29 26 -31 15 -2 22 -10 22 -27 0 -23 22 -35 66 -35 17 0 23 -8
28 -37 11 -67 11 -66 -46 -59 -110 13 -130 18 -135 37 -7 24 -17 27 -165 35
l-128 6 -2 -98 c-1 -55 -2 -113 -3 -131 0 -26 -3 -30 -17 -22 -9 5 -33 9 -52
9 l-36 0 0 74 0 75 -46 7 c-26 4 -50 2 -55 -3 -5 -5 -8 -52 -7 -104 3 -89 4
-94 26 -97 16 -3 22 -10 22 -28 0 -20 -5 -24 -29 -24 l-29 0 -8 -212 -9 -213
-112 -3 -113 -3 0 -43 0 -43 137 -6 c75 -4 174 -7 220 -7 45 0 83 -2 83 -5 0
-2 -14 -25 -32 -50 l-32 -45 -208 0 -208 0 0 99 c0 79 3 100 15 105 9 3 15 19
15 41 0 20 -4 34 -9 31 -5 -4 -12 27 -16 68 -4 41 -11 89 -15 108 l-8 33 -1
-35 c-1 -19 -8 -143 -16 -275 -8 -132 -15 -252 -15 -267 l0 -28 123 -1 c67 -1
163 -4 212 -8 89 -6 90 -6 93 -34 3 -25 19 -8 155 162 l152 190 -3 48 c-2 45
0 51 48 102 28 29 52 52 54 50 19 -24 125 -189 121 -189 -4 0 14 -26 38 -57
l43 -58 -16 -110 c-10 -60 -17 -111 -16 -111 1 -1 97 -5 214 -8 l212 -7 0 23
c0 13 3 39 6 59 l6 36 -158 7 c-88 4 -160 9 -162 11 -2 1 9 21 25 44 23 34 33
41 56 38 24 -3 27 0 27 25 0 23 -4 28 -25 28 -20 0 -25 5 -25 25 0 22 -4 25
-39 25 -25 0 -41 5 -45 15 -4 12 4 15 39 15 25 0 45 3 45 8 0 4 -65 115 -144
247 -107 179 -140 241 -128 244 8 1 48 0 89 -4 68 -6 73 -8 73 -30 0 -21 5
-23 50 -27 46 -3 50 -1 50 20 0 18 6 22 30 22 29 0 30 1 28 48 -1 46 -1 46 -5
7 l-4 -39 -30 47 c-33 54 -69 65 -69 22 0 -23 -3 -25 -49 -25 -62 0 -81 7 -81
31 0 12 7 19 20 19 15 0 20 7 20 25 0 22 3 25 25 19 22 -5 25 -3 25 21 0 24 3
26 30 21 17 -3 44 -9 60 -12 17 -3 30 -3 30 1 0 4 -16 35 -35 70 -25 45 -43
65 -61 69 -23 6 -26 11 -21 39 2 18 -2 41 -10 53 -10 16 -11 28 -3 48 14 37
14 36 -25 36 -25 0 -35 4 -35 16 0 9 -7 29 -17 44 -12 22 -26 30 -60 35 -23 3
-43 10 -43 15 0 5 13 4 30 -1 16 -6 34 -9 39 -7 5 1 -24 62 -65 135 l-75 132
-57 11 c-31 7 -68 14 -81 17 -18 5 -22 3 -17 -8 4 -8 -1 -4 -10 9 -13 18 -26
22 -70 22 -29 0 -64 4 -79 10 -14 5 -40 11 -58 12 -18 1 -39 5 -49 10 -14 7
-17 -4 -23 -88z m539 -300 c9 -3 16 -16 16 -29 0 -18 -4 -22 -20 -18 -13 3
-20 14 -20 29 0 26 1 27 24 18z m-198 -334 c22 0 34 -5 34 -14 0 -9 -9 -12
-27 -9 -59 9 -73 14 -73 24 0 6 7 8 16 5 9 -3 31 -6 50 -6z m184 -35 c0 -16
-6 -25 -15 -25 -9 0 -15 9 -15 25 0 16 6 25 15 25 9 0 15 -9 15 -25z m-187
-11 c31 -6 37 -11 37 -32 0 -23 -2 -24 -42 -18 -37 6 -67 27 -68 49 0 9 22 9
73 1z m139 -26 c2 -19 11 -24 43 -28 34 -4 40 -9 43 -31 3 -26 2 -26 -40 -18
-24 4 -46 8 -49 9 -9 0 -29 49 -29 70 0 28 28 25 32 -2z m-410 -233 c-3 -18
-11 -25 -28 -25 -19 0 -24 5 -24 25 0 21 5 25 29 25 25 0 28 -3 23 -25z"/>
<path d="M2070 2495 c0 -14 5 -25 10 -25 6 0 10 -11 10 -24 0 -25 16 -36 56
-36 19 0 24 -5 24 -25 0 -23 4 -25 45 -25 39 0 45 -3 51 -25 8 -31 44 -35 44
-5 0 15 7 20 25 20 23 0 25 -4 25 -45 0 -42 -2 -45 -26 -45 -23 0 -25 -3 -20
-26 7 -25 6 -26 -31 -20 -21 3 -73 8 -115 11 l-78 7 0 -165 c0 -178 0 -177 56
-177 19 0 24 -5 24 -25 0 -23 3 -25 50 -25 47 0 50 -2 50 -25 0 -18 7 -26 25
-31 18 -4 25 -13 25 -30 0 -19 5 -24 25 -24 20 0 25 5 25 25 0 20 5 25 25 25
18 0 25 5 25 20 0 17 7 20 50 20 l50 0 0 95 0 95 -29 0 c-24 0 -28 -3 -24 -22
4 -23 3 -23 -69 -18 l-73 5 -3 48 c-3 42 -5 47 -28 47 -19 0 -24 5 -24 26 l0
26 93 -6 c50 -4 105 -10 120 -13 l29 -5 -4 185 c-1 102 -6 188 -9 191 -4 5
-375 44 -426 46 -2 0 -3 -11 -3 -25z"/>
<path d="M1240 2376 c0 -14 7 -29 15 -32 8 -4 15 -17 15 -30 0 -15 6 -24 15
-24 12 0 10 10 -11 53 -33 65 -34 66 -34 33z"/>
<path d="M1320 2214 c0 -21 4 -24 41 -24 50 0 48 18 -4 36 -36 13 -37 12 -37
-12z"/>
<path d="M1400 2225 c0 -8 5 -15 10 -15 6 0 10 7 10 15 0 8 -4 15 -10 15 -5 0
-10 -7 -10 -15z"/>
<path d="M886 2203 c4 -16 11 -37 15 -48 7 -17 8 -17 8 -2 1 9 6 17 11 17 6 0
10 -28 10 -62 0 -46 15 -116 53 -253 l54 -190 6 85 c11 135 8 235 -5 248 -10
10 -10 14 0 21 8 5 15 40 19 98 l6 90 -71 11 c-108 18 -114 17 -106 -15z"/>
<path d="M938 1904 c-5 -4 -8 -16 -8 -28 0 -14 3 -17 11 -9 6 6 9 19 7 28 -1
9 -6 13 -10 9z"/>
<path d="M2090 1825 c0 -16 6 -25 15 -25 9 0 15 9 15 25 0 16 -6 25 -15 25 -9
0 -15 -9 -15 -25z"/>
<path d="M1078 1810 c-12 -40 -10 -106 3 -93 5 5 9 34 7 64 -2 42 -5 48 -10
29z"/>
<path d="M2180 1665 c0 -23 3 -24 73 -27 70 -3 72 -4 75 -30 3 -22 9 -28 28
-28 19 0 24 -5 24 -25 0 -20 5 -25 25 -25 20 0 25 -5 25 -25 0 -20 5 -25 25
-25 21 0 25 -5 25 -30 0 -25 4 -30 24 -30 22 0 25 -5 29 -47 3 -27 3 -12 1 32
-2 44 -5 123 -5 175 -1 52 -4 82 -6 67 -4 -22 -9 -28 -26 -25 -13 2 -23 13
-27 28 -4 16 -14 26 -28 28 -20 3 -22 0 -16 -22 6 -25 5 -26 -45 -26 -47 0
-51 2 -51 24 0 30 -16 36 -91 36 -56 0 -59 -1 -59 -25z"/>
<path d="M837 1650 c-3 -8 -10 -100 -17 -205 -6 -104 -13 -209 -17 -232 -5
-41 -4 -43 21 -43 26 0 27 1 27 68 0 201 1 225 10 211 14 -22 10 86 -5 156 -7
33 -16 53 -19 45z"/>
<path d="M1126 1354 c-10 -25 -7 -84 4 -84 6 0 10 23 10 50 0 52 -4 61 -14 34z"/>
<path d="M2280 1304 c0 -23 -3 -25 -25 -20 -22 6 -25 3 -25 -22 0 -26 -3 -29
-25 -24 l-25 4 0 -105 0 -105 108 -6 c59 -3 143 -9 186 -11 l79 -6 -7 62 c-3
34 -6 93 -6 130 l0 69 -30 0 c-25 0 -30 4 -30 24 0 31 -15 36 -116 36 -84 0
-84 0 -84 -26z"/>
</g>
</svg>
